PathFileType	4	(X/Y/Z)	Walk6.trc
DataRate	CameraRate	NumFrames	NumMarkers	Units	OrigDataRate	OrigDataStartFrame	OrigNumFrames
200.000000	200.000000	6	58	mm	200.000000	341	597
Frame#	Times		LBHD		LACR1		RMT5		LElbowM		RTH2		RTB3		LWRU		RToe		RTB2		RMT1		C7		LCAR		RCAL		RCAR		LASI		RFA1		RLFC		RWRU		LLFC		LTH3		LTH4		RElbow		RElbowM		LPSI		LTH2		RPSI		LTB2		RASI		LCAL		LMMAL		LFHD		T10		LMT5		LToe		RBHD		LUA1		LMT1		RTH3		RLMAL		RBack		RMFC		LTB1		LTB3		LTH1		LMFC		RFHD		RTB1		LTB4		RUA1		RTH1		RTH4		RTB4		LLMAL		RWRR		LWRR		RACR1		LElbow		RMMAL
			X1	Y1	Z1	X2	Y2	Z2	X3	Y3	Z3	X4	Y4	Z4	X5	Y5	Z5	X6	Y6	Z6	X7	Y7	Z7	X8	Y8	Z8	X9	Y9	Z9	X10	Y10	Z10	X11	Y11	Z11	X12	Y12	Z12	X13	Y13	Z13	X14	Y14	Z14	X15	Y15	Z15	X16	Y16	Z16	X17	Y17	Z17	X18	Y18	Z18	X19	Y19	Z19	X20	Y20	Z20	X21	Y21	Z21	X22	Y22	Z22	X23	Y23	Z23	X24	Y24	Z24	X25	Y25	Z25	X26	Y26	Z26	X27	Y27	Z27	X28	Y28	Z28	X29	Y29	Z29	X30	Y30	Z30	X31	Y31	Z31	X32	Y32	Z32	X33	Y33	Z33	X34	Y34	Z34	X35	Y35	Z35	X36	Y36	Z36	X37	Y37	Z37	X38	Y38	Z38	X39	Y39	Z39	X40	Y40	Z40	X41	Y41	Z41	X42	Y42	Z42	X43	Y43	Z43	X44	Y44	Z44	X45	Y45	Z45	X46	Y46	Z46	X47	Y47	Z47	X48	Y48	Z48	X49	Y49	Z49	X50	Y50	Z50	X51	Y51	Z51	X52	Y52	Z52	X53	Y53	Z53	X54	Y54	Z54	X55	Y55	Z55	X56	Y56	Z56	X57	Y57	Z57	X58	Y58	Z58

341	1.705	-338.9	1617.6	-70.272	-299.07	1418.1	-174.46	-76.409	54.895	134.92	-328.34	1082.2	-308.21	-195.8	705.29	107.99	-149.43	227.23	53.88	-212.21	825.33	-296.33	11.406	78.483	109.24	-162.43	315.65	127.27	-33.119	67.449	65.71	-392.33	1481.5	-10.338	-140.13	826.67	-274.88	-234.09	42.292	36.965	-313.72	785.24	253.6	-296.33	1033.6	-166.53	-401.14	923.8	262.73	-200.33	547.14	133.5	-381.43	805.67	228.25	-372.11	510.09	-133.53	-355.43	574.13	-142.34	-349.57	666.37	-163.51	-431.04	1083.3	266.24	-463.45	1090	187.83	-491.43	1038.6	-51.576	-290.71	669.63	-119.84	-495.96	1037.2	16.768	-377.62	289.35	-116.98	-311.12	987.75	144.7	-543.04	34.374	-52.236	-456.8	66.51	-15.304	-160.59	1621.4	-30.092	-477.4	1223.7	-15.23	-361.63	23.694	-122.88	-273.61	35.002	-62.2	-346.14	1610.2	66.002	-306.67	1218.3	-260.82	-325.47	28.968	-40.466	-215.17	591.49	136.61	-194.18	87.849	101.16	-428.06	1368.3	139.53	-214.66	506.4	9.499	-350.44	378.59	-46.634	-404.2	201.36	-44.921	-344.75	757.73	-181.55	-394.85	491.99	-7.4207	-164.64	1619	44.765	-142.01	412.65	57.563	-378.27	290.07	-44.865	-346.92	1238.9	230.69	-288.77	764.72	163.54	-247.44	677.79	153.26	-144.67	315.54	54.17	-476.41	59.421	-98.85	-305.87	834.85	207.96	-163.47	864.45	-239.64	-295.32	1416.9	149.87	-376.93	1063.1	-240.69	-158.38	96.418	27.228
342	1.71	-333.96	1617	-69.721	-294.18	1417.7	-173.98	-58.446	56.351	135.57	-321.83	1081.9	-308.28	-191.64	703.93	108.1	-136.74	227.24	54.773	-203.71	825.94	-295.69	28.649	81.871	109.35	-152.41	315.53	127.91	-15.806	69.76	66.131	-387.37	1480.9	-9.832	-131.7	827.93	-274.06	-216.25	40.226	38.406	-309.62	784.46	253.89	-291.6	1033.2	-166.64	-396.81	923.15	263.01	-196.5	545.87	133.69	-377.28	804.99	228.52	-369.91	509.67	-133.45	-352.83	573.73	-142.28	-346.45	665.98	-163.42	-426.43	1082.7	266.55	-458.83	1089.5	188.14	-486.6	1038	-50.978	-287.56	668.86	-119.71	-490.92	1036.5	17.318	-376.48	288.91	-116.88	-305.93	986.85	144.94	-543.03	34.421	-52.144	-456.68	66.421	-15.187	-155.68	1620.9	-29.399	-472.34	1223	-14.671	-361.62	23.662	-122.9	-273.49	34.83	-62.267	-341.3	1609.5	66.542	-301.06	1218	-260.7	-325.46	28.975	-40.446	-211.3	590.21	136.79	-177.26	86.559	102.58	-423.06	1367.7	139.97	-210.52	504.73	9.6926	-348.86	378.02	-46.565	-403.45	201.05	-44.823	-341.1	757.33	-181.43	-392.7	491.74	-7.3161	-159.78	1618.5	45.448	-135.01	412.84	57.905	-377.11	289.64	-44.775	-342.06	1238.2	231.04	-284.28	763.67	163.92	-243.26	676.61	153.52	-134.67	315.67	54.797	-476.35	59.452	-98.733	-301.66	834.06	208.26	-155.46	865.53	-238.95	-290.3	1416.1	150.28	-370.43	1062.4	-240.85	-141.87	96.089	28.366
343	1.715	-329	1616.4	-69.149	-289.27	1417.2	-173.47	-40.771	58.126	136.21	-315.35	1081.6	-308.31	-187.52	702.48	108.25	-124.3	227.39	55.675	-195.29	826.53	-295.03	45.534	85.576	109.4	-142.53	315.51	128.54	1.1518	72.345	66.537	-382.39	1480.3	-9.3058	-123.35	829.15	-273.22	-198.67	38.417	39.967	-305.48	783.65	254.2	-286.87	1032.7	-166.74	-392.45	922.48	263.32	-192.72	544.51	133.87	-373.09	804.29	228.82	-367.7	509.25	-133.35	-350.2	573.31	-142.22	-343.32	665.58	-163.31	-421.79	1082.1	266.88	-454.17	1088.9	188.47	-481.74	1037.4	-50.358	-284.4	668.08	-119.56	-485.85	1035.8	17.889	-375.33	288.47	-116.77	-300.69	985.92	145.18	-543.01	34.474	-52.052	-456.57	66.334	-15.069	-150.75	1620.5	-28.678	-467.25	1222.3	-14.081	-361.6	23.628	-122.92	-273.36	34.659	-62.335	-336.44	1608.8	67.103	-295.45	1217.7	-260.55	-325.44	28.984	-40.428	-207.5	588.83	136.96	-160.57	85.555	104.07	-418.05	1367	140.44	-206.42	503.01	9.875	-347.27	377.45	-46.49	-402.71	200.74	-44.718	-337.44	756.9	-181.29	-390.55	491.48	-7.2035	-154.92	1618	46.158	-128.15	413.02	58.218	-375.95	289.2	-44.677	-337.16	1237.5	231.41	-279.88	762.52	164.29	-239.16	675.33	153.78	-124.87	315.87	55.413	-476.28	59.485	-98.614	-297.42	833.24	208.58	-147.52	866.59	-238.24	-285.26	1415.3	150.69	-363.96	1061.6	-240.97	-125.68	95.994	29.553
344	1.72	-324.02	1615.8	-68.556	-284.35	1416.7	-172.94	-23.445	60.198	136.86	-308.9	1081.2	-308.31	-183.42	700.97	108.46	-112.13	227.67	56.577	-186.95	827.11	-294.36	62.007	89.574	109.4	-132.81	315.57	129.17	17.701	75.189	66.929	-377.41	1479.7	-8.7582	-115.09	830.35	-272.37	-181.41	36.849	41.63	-301.3	782.82	254.54	-282.14	1032.3	-166.83	-388.05	921.78	263.64	-188.98	543.09	134.04	-368.86	803.57	229.13	-365.48	508.82	-133.25	-347.55	572.89	-142.17	-340.16	665.16	-163.19	-417.11	1081.5	267.24	-449.49	1088.3	188.82	-476.85	1036.7	-49.718	-281.23	667.28	-119.4	-480.76	1035.1	18.481	-374.18	288.02	-116.66	-295.39	984.98	145.41	-543	34.533	-51.959	-456.45	66.248	-14.952	-145.8	1619.9	-27.931	-462.16	1221.5	-13.463	-361.58	23.594	-122.95	-273.24	34.485	-62.404	-331.57	1608	67.686	-289.82	1217.4	-260.36	-325.42	28.994	-40.41	-203.73	587.38	137.13	-144.16	84.831	105.61	-413.01	1366.3	140.94	-202.33	501.26	10.051	-345.68	376.88	-46.406	-401.96	200.42	-44.606	-333.75	756.46	-181.14	-388.38	491.22	-7.082	-150.03	1617.4	46.893	-121.42	413.19	58.504	-374.79	288.76	-44.571	-332.24	1236.7	231.8	-275.57	761.28	164.67	-235.13	673.97	154.03	-115.26	316.13	56.016	-476.21	59.523	-98.494	-293.14	832.4	208.91	-139.66	867.62	-237.52	-280.19	1414.5	151.12	-357.51	1060.9	-241.06	-109.84	96.116	30.774
345	1.725	-319.02	1615.2	-67.941	-279.41	1416.2	-172.38	-6.5339	62.533	137.52	-302.5	1080.8	-308.29	-179.33	699.42	108.71	-100.24	228.07	57.471	-178.7	827.68	-293.66	78.016	93.829	109.37	-123.27	315.72	129.79	33.789	78.269	67.315	-372.41	1479.1	-8.1877	-106.91	831.52	-271.5	-164.52	35.503	43.366	-297.09	781.96	254.89	-277.42	1031.8	-166.88	-383.62	921.05	263.99	-185.25	541.64	134.21	-364.6	802.81	229.46	-363.24	508.38	-133.14	-344.88	572.45	-142.11	-336.97	664.74	-163.04	-412.41	1080.8	267.61	-444.77	1087.6	189.18	-471.94	1036	-49.061	-278.06	666.48	-119.21	-475.64	1034.3	19.091	-373.02	287.57	-116.53	-290.04	984.03	145.63	-542.98	34.599	-51.865	-456.34	66.166	-14.836	-140.84	1619.4	-27.158	-457.05	1220.7	-12.82	-361.56	23.559	-122.98	-273.11	34.309	-62.473	-326.69	1607.2	68.291	-284.19	1217.1	-260.14	-325.41	29.006	-40.393	-199.98	585.87	137.28	-128.09	84.371	107.15	-407.94	1365.5	141.46	-198.24	499.5	10.226	-344.09	376.29	-46.313	-401.22	200.11	-44.488	-330.03	755.99	-180.97	-386.19	490.94	-6.9504	-145.13	1616.8	47.654	-114.82	413.36	58.768	-373.63	288.32	-44.458	-327.29	1235.9	232.2	-271.33	759.97	165.06	-231.15	672.55	154.28	-105.87	316.45	56.602	-476.13	59.565	-98.374	-288.82	831.52	209.27	-131.87	868.63	-236.77	-275.1	1413.6	151.57	-351.1	1060.2	-241.11	-94.416	96.437	32.01
346	1.73	-314.01	1614.5	-67.304	-274.44	1415.7	-171.8	9.8963	65.088	138.17	-296.13	1080.5	-308.22	-175.23	697.85	109	-88.664	228.56	58.35	-170.53	828.24	-292.94	93.507	98.288	109.31	-113.91	315.95	130.4	49.365	81.553	67.699	-367.41	1478.4	-7.5924	-98.825	832.66	-270.62	-148.06	34.359	45.14	-292.84	781.07	255.26	-272.72	1031.3	-166.91	-379.16	920.29	264.35	-181.5	540.17	134.38	-360.31	802.03	229.8	-360.99	507.95	-133.02	-342.18	572.02	-142.04	-333.76	664.3	-162.88	-407.67	1080.1	268	-440.02	1087	189.57	-467	1035.2	-48.388	-274.86	665.66	-119	-470.5	1033.5	19.717	-371.86	287.11	-116.4	-284.62	983.07	145.84	-542.96	34.673	-51.771	-456.23	66.086	-14.721	-135.86	1618.8	-26.361	-451.95	1220	-12.157	-361.54	23.523	-123.02	-272.98	34.13	-62.542	-321.8	1606.4	68.919	-278.54	1216.8	-259.87	-325.4	29.019	-40.374	-196.21	584.33	137.44	-112.43	84.153	108.69	-402.86	1364.8	142.01	-194.11	497.76	10.406	-342.49	375.71	-46.21	-400.47	199.79	-44.365	-326.28	755.51	-180.78	-384	490.66	-6.8072	-140.22	1616.1	48.44	-108.32	413.51	59.016	-372.47	287.88	-44.337	-322.32	1235	232.64	-267.15	758.59	165.45	-227.19	671.08	154.52	-96.692	316.81	57.171	-476.05	59.611	-98.254	-284.47	830.62	209.64	-124.17	869.62	-236.02	-269.99	1412.7	152.03	-344.73	1059.5	-241.11	-79.441	96.934	33.243
